<?xml version="1.0" encoding="UTF-8"?>
<svg id="Capa_1" data-name="Capa 1" xmlns="http://www.w3.org/2000/svg" viewBox="0 0 280 280">
  <defs>
    <style>
      .cls-1 {
        fill: #3c2414;
      }
    </style>
  </defs>
  <g>
    <path class="cls-1" d="M245.8,179.21c-.2.4-.37.86-.56,1.27-1.26,2.72-3.05,5.08-6.15,5.23-2.9.14-3.12-1.66-3.25-3.56-.03-1.06-.1-2.18-.45-3-1.8-3.99-5.31-3.3-8.32-3.66-14.07-1.72-28.14-3.24-42.16-4.85-4.31-.44-8.09-1.46-11.33-3.08,0,0-.02-.06-.08-.03-3.1-1.57-5.73-3.68-7.91-6.4-4.39,16.01-11.06,29.93-17.77,39.74-1.47,5.12-2.24,10.51-2.24,16.08,0,.89.03,1.76.06,2.62.05-.4.1-.81.15-1.21.17-1.23.45-2.45.83-3.64,1.98-6.08,7.38-20.92,16.51-32.89,1.28-1.68,2.79-3.18,4.54-4.36,7.99-5.33,17.17-7.06,27.75-4.27,8.1,2.13,12.59,7.72,12.29,16.11-.16,4.61-.98,9.33-2.36,13.73-3.34,10.6-8.62,20.2-14.56,29.45-1.21,1.92-2.47,3.8-3.73,5.67-.52.78-1.05,1.56-1.58,2.34-.68.98-1.35,1.95-2.08,2.96-.37.52-.78,1.02-1.24,1.46-.36.34-.71.68-1.07,1.01h1.2c5.01,0,12.52,1.32,18.77,3.45,6.25,2.13,11.25,5.08,11.25,8.33,0,.78-.97,1.41-2.17,1.41h-59.21c-3.66.25-7.3.26-10.89.02-.67-.05-1.33-.14-1.98-.32-2.09-.58-4.09-1.39-5.95-2.39-7.61,1.37-15.19,1.73-22.57,1.15-27.08-2.08-51.69-16.82-66.52-41.26-28.99-47.78-3.49-112.63,49.67-126.65,4.56-1.21,7.98-.66,9.58,3.65,1.6,4.36-.45,7.56-5.06,8.87-1.07.31-2.1.73-3.14,1.09-35.54,12.47-55.06,45.94-48.43,83.08,4.02,22.51,19.79,41.3,39.82,51.15,9.55,4.69,20.05,7.37,30.71,7.45-21.73-17.93-33.83-69.54-5.67-110.1,5.44-10.74,11.1-23.99,14.41-37.76,1.25-5.21,3.26-10.19,5.45-15.08.38-.85.63-1.76.63-2.69,0-1.96.06-15.04,6.11-25.47h-.01c.96-1.62,2.3-5.07,3.34-6.83-1.51-.67-3.06-1.37-5.83-2.61,4.46-2.45,8.25-4.53,12.34-6.78-1.73-.98-3.54-1.99-5.93-3.33,5.67-2.52,10.23-1.37,13.9,1.32,3.07-2.29,5.54-5.08,8.63-6.21,5.42-1.99,11.03-3.33,14.52-8.85,2.79,4.91.85,9.03-.46,13.5,8.23-1.58,17.04,2.15,24.18-4.9-.04,2.51-.22,4.79-1.09,6.78-.89,2.03-2.45,3.76-3.83,5.79,6.99,1.88,12.12,5.85,16.68,12.3-4.11-.91-7.29-1.61-10.73-2.37.07.12.1.4.1.82,0,4.93-4.06,8.43-8.51,8.53-1.62,3.26-3.52,9.32,1.39,14.23,7.08,7.08-4.92,15.57-4.92,15.57,0,0-8.64,14.33-25.31,8.35-.7-.24-1.32.5-.93,1.12,1.68,2.59,4.38,7.61,6.25,15.16.85,3.44.41,6.89.04,10.39-.14-.02-.28-.05-.43-.08.13.16.25.33.38.49.02-.13.03-.27.05-.41,14.47,2.8,28.61,5.34,42.98,6.11,3.3.18,6.82-.6,9.98-2.14,2.2,1.27,4.75,2.13,7.66,2.13,5.81,0,10.25-3.45,13.16-6.74.4.96.73,1.95,1.11,2.9,1.75,4.55-.86,9.52-4.52,10.32-5.74,1.27-11.88,2.59-18.02,3.03-14.61.86-29.32,2.61-44.05,2.86,4.55,6.53,11.78,10.19,22,11.42,2.59.3,5.24.79,7.78,1.37,8.17,1.91,16.22,4.99,24.28,7.54.14.01.3.09.44.11,3.44,1.01,6.83,2.64,9.75,4.71,3.3,2.33,3.83,5.97,2.32,9.71Z"/>
    <path class="cls-1" d="M204.25,259.4c-5.4-.02-10.81-.02-16.21-.02,5.28-.08,10.65-.03,16.21.02Z"/>
    <path class="cls-1" d="M190.79,232.49c-1.09,1.97-2.34,3.88-3.73,5.67,1.26-1.88,2.52-3.76,3.73-5.67Z"/>
    <path class="cls-1" d="M170.92,125.88c-.01.14-.03.28-.05.41-.13-.16-.25-.33-.38-.49.15.03.29.06.43.08Z"/>
    <path class="cls-1" d="M170.92,125.88c-.01.14-.03.28-.05.41-.13-.16-.25-.33-.38-.49.15.03.29.06.43.08Z"/>
  </g>
  <g>
    <path class="cls-1" d="M237.16,121.82c.52-3.43.68-6.89.7-10.36.02-2.57-.07-5.14-.22-7.71,0-.07,0-.14.01-.21.19-2.87.18-10.27.16-13.15-.02-3.45-.18-6.89-.7-10.29-.25-1.64-.59-3.26-1.15-4.8-.41-1.13-.9-2.19-1.68-3.05-.65-.72-1.42-1.16-2.36-1.22-.19-.01-.37.02-.54.11-.35.18-.64.46-.89.78-.55.69-.92,1.5-1.23,2.35-.42,1.12-.72,2.28-.96,3.46-.54,2.59-.81,5.2-1,7.84-.28,3.9-.32,7.81-.27,11.71,0,.54.08,3.56.12,5.39,0,0-.01,0-.02,0-.01.75-.03,1.48-.04,2.21-.05,3.93,0,7.85.27,11.76.19,2.64.46,5.26,1,7.84.24,1.18.54,2.33.96,3.44.32.84.69,1.64,1.23,2.32.25.31.54.58.89.75.17.09.35.11.54.1.93-.09,1.7-.56,2.35-1.3.78-.89,1.27-1.97,1.67-3.12.55-1.57.89-3.2,1.14-4.86Z"/>
    <path class="cls-1" d="M227.44,126.42c-.48-1.92-.77-3.89-.99-5.87-.38-3.49-.52-6.99-.57-10.51-.03-2.04-.02-4.07.02-6.11.03-.03.02-.1.02-.23,0-.05,0-.11,0-.16,0-.11,0-.25,0-.38,0-.02,0-.05,0-.07,0-.1,0-.16,0-.19-.05-2.66-.11-8.35-.08-10.42.05-3.5.19-6.99.58-10.48.22-1.98.51-3.95.99-5.87.34-1.36.76-2.69,1.45-3.87,0-.01,0-.04,0-.07-.09-.02-.18.02-.27.05-1.8.47-3.25,1.65-4.43,3.35-.91,1.29-1.59,2.75-2.15,4.3-.85,2.34-1.41,4.78-1.81,7.26-.61,3.72-.88,7.47-.94,11.23-.01.69.06,5.7.06,6.38,0,0,.01,0,.02,0,.07,3.64.34,7.26.92,10.85.4,2.49.96,4.92,1.81,7.24.56,1.53,1.24,2.98,2.15,4.25,1.19,1.66,2.63,2.8,4.43,3.22.09.02.18.06.27.04,0-.03,0-.06,0-.07-.69-1.17-1.1-2.49-1.44-3.85Z"/>
    <path class="cls-1" d="M244.09,116.1c.49-2.86.73-5.76.82-8.66.04-1.32.04-2.65.02-3.97.05-2.25,0-7.62-.06-9.26-.09-2.89-.34-5.76-.82-8.6-.4-2.31-.95-4.56-1.82-6.71-.73-1.81-1.67-3.47-3.01-4.81-1.02-1.01-2.2-1.71-3.55-2.04-.07-.02-.14-.06-.26,0,.85,1.04,1.4,2.24,1.82,3.52.63,1.89.98,3.86,1.23,5.85.39,3.08.51,6.19.52,9.3,0,2.36.06,8.17-.04,11.61,0,.03,0,.08,0,.14,0,.02,0,.04,0,.06-.04.48-.05.95-.07,1.42,0,.01,0,.02,0,.04,0,.09,0,.14,0,.18-.04,2.35.17,4.64.16,6.92,0,3.13-.13,6.26-.52,9.36-.25,2.01-.61,4-1.23,5.92-.42,1.3-.97,2.53-1.82,3.59.11.06.19.02.26,0,1.35-.37,2.53-1.11,3.55-2.16,1.35-1.38,2.28-3.08,3.01-4.92.87-2.18,1.42-4.46,1.81-6.79Z"/>
    <path class="cls-1" d="M248.88,102.39c.24-2.89.26-8.56.06-11.13-.2-2.66-.66-5.26-1.53-7.77-.6-1.73-1.39-3.37-2.47-4.86-.95-1.31-2.06-2.48-3.4-3.41-.05-.03-.08-.1-.17-.04.02.03.05.07.07.1.72.9,1.29,1.89,1.78,2.92.97,2.02,1.61,4.16,2.07,6.36.86,4.03,1.15,8.13,1.16,12.27,0,.7,0,3.01-.02,4.73-.01.04-.02.09-.01.15-.13,1.82,0,2.13,0,3.15,0,4.15-.22,8.2-1.08,12.28-.47,2.22-1.11,4.38-2.07,6.44-.5,1.05-1.06,2.06-1.78,2.99-.02.03-.05.06-.07.1.09.05.12-.01.17-.05,1.34-.97,2.45-2.17,3.4-3.52,1.08-1.52,1.86-3.19,2.46-4.95.87-2.55,1.33-5.17,1.53-7.85.2-2.64.16-5.28-.1-7.91Z"/>
    <path class="cls-1" d="M220.32,121.23c-.92-2.49-1.51-5.07-1.92-7.68-.59-3.73-.84-7.48-.8-11.26,0-.05,0-.11,0-.16,0-.01,0-.01,0-.02.08-.32-.06-1.75-.08-1.88,0-.05,0-.1,0-.16-.03-3.75.21-7.5.81-11.22.42-2.62,1-5.19,1.92-7.7.68-1.84,1.52-3.6,2.69-5.2.14-.19.28-.37.43-.57-.09,0-.14.05-.18.08-.77.53-1.47,1.15-2.11,1.82-1.25,1.31-2.25,2.79-3.05,4.4-1.19,2.39-1.92,4.92-2.38,7.53-.54,3.09-.69,6.19-.56,9.3.03.8.18,1.89.28,2.77,0,0,0,0,0,0-.1.92-.16,1.78-.19,2.65-.13,3.13.02,6.24.56,9.33.45,2.61,1.18,5.13,2.38,7.5.8,1.6,1.8,3.06,3.05,4.34.64.66,1.34,1.26,2.11,1.78.05.03.09.08.18.08-.15-.2-.29-.38-.43-.56-1.17-1.58-2.01-3.32-2.68-5.16Z"/>
  </g>
</svg>