<?xml version="1.0" encoding="UTF-8"?>
<svg id="Capa_1" data-name="Capa 1" xmlns="http://www.w3.org/2000/svg" viewBox="0 0 280 280">
  <defs>
    <style>
      .cls-1 {
        fill: #d86d45;
      }
    </style>
  </defs>
  <path class="cls-1" d="M57.67,247.92c-2.26,0-4.11-.77-5.55-2.31-1.44-1.54-2.16-3.34-2.16-5.39V39.79c0-2.26.72-4.11,2.16-5.55s3.29-2.16,5.55-2.16h38.85c2.26,0,4.11.72,5.55,2.16,1.44,1.44,2.16,3.29,2.16,5.55v68.45l57.04-70.3c.82-1.23,2.21-2.51,4.16-3.85,1.95-1.34,4.57-2,7.86-2h44.4c1.85,0,3.39.67,4.62,2,1.23,1.34,1.85,2.83,1.85,4.47,0,1.44-.31,2.67-.92,3.7l-74,93.12,79.55,102.37c.82.82,1.23,2.06,1.23,3.7s-.62,3.14-1.85,4.47c-1.23,1.34-2.78,2-4.62,2h-45.94c-3.7,0-6.53-.82-8.48-2.47-1.96-1.64-3.24-2.88-3.85-3.7l-61.05-76.16v74.62c0,2.06-.72,3.85-2.16,5.39-1.44,1.54-3.29,2.31-5.55,2.31h-38.85Z"/>
</svg>