<?xml version="1.0" encoding="UTF-8"?>
<svg id="Layer_1" data-name="Layer 1" xmlns="http://www.w3.org/2000/svg" viewBox="0 0 1000 1000">
  <g>
    <g id="Isotipo">
      <path d="M108.77,251.6c3.53,1.71,5.6,7.91,7.45,16.28,3.2,14.59,6.85,35.56,10.44,51.91,21.99,93.17,98.06,167.79,182.14,208.43,5.11,2.6,10.99,6.33,13.47,10.42,5.21,8.02,0,17.88-3.16,26.1-13.22,32.1-18.65,66.15-17,100.97.14,6.43,1.12,16.46-3.84,20.4-4.92,2.93-10.88-2.36-14.35-6.16-16.46-17.77-12.52-49.73-9.09-73.73,0-1.85-.81-.79-2.5,2.93-2.06,4.42-4.88,12.04-7.41,16.95-2.24,4.13-4.52,8.66-9.12,9.62-9.65.62-25.5-20.86-28.35-31.68-3.78-11.81.48-27.51.72-38.83-.18-1.32-.92-.36-2.02,2.25-1.99,4.7-4.72,11.8-8.79,15.63-8.28,7.46-17.23-2.03-24.17-12.84-7.52-12.38-11.37-28.05-14.48-42.53-.7-2.36-1.6-8.47-3.67-7.44-3.16,2.14-6.27,6.45-11.32,3.06-4.11-2.89-7.47-8.4-10.29-12.86-13.43-21.37-21.92-46.61-38.35-65.6-4.6-4.02-1.34,3.3.67,7.27,11.54,21.03,33.81,59.05,45.46,79.74,8.56,14.36,4.19,14.96-7.16,22.47-1.07.89-1.62,2.08-.45,3.04,2.17,2.37,16.46,5.66,23.57,9.93,11.69,6.71,25.78,21.73,24.45,34.56-.36,4.3-3.12,9.64-4.81,12.83-2.88,5.17,1.17,5.04,5.64,5.68,18.24,0,39.96,13.35,41.53,32.37.33,5.82-2.07,12.18-3.9,17.38-4.92,11.25,9.4,2.79,14.74,2.49,14.62-3.66,28.2,11.22,30.16,25.15,1.54,7.96-2.8,17.76-5.06,23.55-1.28,3.52-1.74,5.86,1.33,4.49,4.27-1.67,13.24-9.03,18.92-6.71,5.73,3.28,6.88,9.36,9.26,16.22,2.65,9.29,5.15,19.93,7.47,29.56,4.76,23.53,12.51,44.35,18.88,67.2,4.32,17.6,5.29,35.92-19.37,23.24-30.31-15.38-61.68-37-88.37-57.99-123.54-93.94-169.26-244.99-168.26-399.21,1.42-41.96,5.42-78.7,22.64-117.46,4.12-9.71,16.22-31.86,26.13-29.17l.24.11Z"/>
      <path d="M903.45,584.21c-7.88-9.17-26.73-12.74-39.4-16.03-21.98-5.32-44.66-11.21-64.14-23.24-19.41-11.51-31.78-27.35-53.95-37.19-25.5-11.43-56.2-14.7-81.32-26.06-29.6-13.33-47.36-40.14-77.05-53.82-23.06-12.34-48.71-14.49-70.82-26.97-19.6-10.83-35.31-27.51-51.98-42.11-8.39-7.33-26.08-21.95-34.26-14.69,9.86,58.01,355.03,208.46,441.21,240.68,7.28,2.93,16.78,6.26,23.7,6.57,8.2.56,11.68-2.46,8.22-6.89l-.2-.25Z"/>
      <path d="M491.99,932.54c-6.41,8.35-45.8-4.64-61.49-12.48-18.2-9.1-32.36-25.54-31.51-33.97-.17-10.77,38.92-122.62,60.69-173.76,29.41-69.08,102.86-212.86,118.11-241.79,1.16-2.19,5.1-1.64,10.62-.2,18.93,4.92,56.33,24.48,62.59,27.5,7.31,3.52,19.78,10.34,50.16,26.42,5.27,2.79,12.38,8.34,13.95,11.63,1.81,3.09,1.22,5.61-.21,8.5-7.99,15.74-85.75,171.08-122.53,236.19-20.16,35.69-89.73,140.27-100.38,151.97Z"/>
      <path d="M245.83,227.32c3.01,1.67,5.28,6.31,6.72,9.92,22.49,54.79,71.17,94.17,124.39,117.74,6.09,3.51,19.02,9.43,17.69,16.73-5.24,11.83-12.87,28.76-20.37,45.15-8.7,19.01-17.22,37.29-21.64,46.02-3.22,3.37-5.36-2.89-7-8.41-1.29-3.8-1.17-8.64-4-11.44-1.75-1.02-3.72.94-5.39,1.52-1.89.8-3.28.23-4.83-1.37-7.68-9.27-20.55-27.87-25.48-33.96,3.97,8.76,18.46,32.69,23.3,41.97,5.66,9.25-5.85,7.57-8.74,12.35,1.16,2.49,8.99,2.87,13.64,6.15,12.57,8.29,10.2,22.58,1.62,36.95-8.68,14.68-18.63,15.28-34.06,10.2-114.4-34.43-113.26-196.11-65.87-286.34,3.03-3.69,6.81-5.16,10.01-3.2Z"/>
      <path d="M569.4,943.58c.14-.01-2.35.04-2.21.01,117.46-22.5,202.84-101.19,266.69-200.84,10.38-16.19,36.84-60.52,50.29-88.17,5.7-11.72,14.02-30.69,12.89-35.15-1.3-5.1-5.25-11.7-14.28-16.5-20.27-10.76-52.04-23.92-61.95-28.34-14.28-6.37-88.17-40.27-92.32-33.04-10.19,17.73-31.11,63.52-53.04,107.1-33.51,66.6-47.35,101.93-79.87,151.18-40.92,61.97-53.67,88.16-95.72,132.2-6.13,6.42-5.31,10.72,29.47,14.11.34.03,14.56-.14,14.91-.2l25.15-2.37Z"/>
      <path d="M765.45,442.87c-7.76,15.62-15.62,33.86-28.17,36.63-18.92,4.19-40.81-8.63-65.74-20.8-25.91-12.65-49.53-25.91-57.23-44.46-4.62-11.13,3.91-28.17,11.27-42.59,6.36-12.47,18.34-31.32,26.81-35.62,20.43-10.37,41.35,3.47,70.66,17.77,25.91,12.65,49.51,23.47,57.23,41.92,4.63,11.07-7.28,31.95-14.83,47.15Z"/>
    </g>
    <path d="M342.11,829.19c-52.05-107.79-37.38-220.5,4.61-331.23,6.82-17.98,26.64-65.66,40.83-92.92,6.02-11.56,16.29-29.55,20.54-31.3,4.87-2,12.53-2.76,21.76,1.63,20.72,9.86,50.22,27.53,59.68,32.85,13.63,7.67,84.89,46.8,81.56,54.44-8.17,18.75-32.46,62.84-54.39,106.42-33.51,66.6-53.62,98.78-73.79,154.24-25.38,69.79-39.37,98.28-49.67,158.3-1.51,8.81-13.57,5.31-29.42-16.47-12.55-17.26-21.7-35.96-21.7-35.96Z"/>
  </g>
  <path d="M806.27,331.83c-6.27,12.62-12.63,27.36-22.77,29.61-15.29,3.38-32.98-6.98-53.13-16.81-20.94-10.22-40.03-20.94-46.25-35.93-3.73-9,3.16-22.77,9.11-34.43,5.14-10.08,14.82-25.31,21.67-28.79,16.51-8.38,33.42,2.8,57.1,14.36,20.94,10.22,40.02,18.97,46.26,33.88,3.74,8.95-5.88,25.83-11.99,38.11Z"/>
  <path d="M838.86,237.61c-5.02,10.1-10.1,21.89-18.21,23.68-12.23,2.71-26.38-5.58-42.5-13.45-16.75-8.18-32.02-16.75-37-28.74-2.98-7.2,2.53-18.21,7.29-27.54,4.11-8.06,11.86-20.25,17.33-23.03,13.21-6.7,26.73,2.24,45.68,11.49,16.75,8.18,32.01,15.17,37,27.1,2.99,7.16-4.7,20.66-9.59,30.48Z"/>
  <path d="M866.38,161.3c-4.05,8.14-8.14,17.65-14.68,19.09-9.86,2.18-21.27-4.5-34.27-10.84-13.51-6.59-25.82-13.5-29.83-23.17-2.41-5.8,2.04-14.69,5.87-22.2,3.32-6.5,9.56-16.33,13.98-18.57,10.65-5.41,21.55,1.81,36.83,9.26,13.51,6.59,25.81,12.23,29.83,21.85,2.41,5.77-3.79,16.66-7.73,24.58Z"/>
  <path d="M889.48,99.85c-3.31,6.65-6.65,14.42-11.99,15.6-8.06,1.78-17.38-3.68-27.99-8.86-11.03-5.38-21.09-11.03-24.37-18.93-1.97-4.74,1.67-12,4.8-18.14,2.71-5.31,7.81-13.34,11.42-15.17,8.7-4.42,20.3-2.4,32.78,3.69,11.03,5.38,18.39,13.87,21.67,21.72,1.97,4.71-3.1,13.61-6.32,20.08Z"/>
  <path d="M783.13,118.46c-11.06,20.05-6.45,23.88-13,22.46-10.69-2.31-12.77-3.87-25.77-10.21-13.51-6.59-18.75-8.73-22.76-18.39-2.41-5.8,2.04-14.69,5.87-22.2,3.32-6.5,9.56-16.33,13.98-18.57,10.65-5.41,17.44-.39,32.72,7.06,13.51,6.59,15.63,8.07,23.43,15.07,4.3,3.85-3.65,5.15-14.48,24.79Z"/>
  <path d="M734.57,183.81c-14.04,24.93-7.14,30.27-16.59,27.88-15.44-3.9-18.54-6.1-37.61-15.4-19.82-9.67-27.47-12.88-34.02-25.71-3.93-7.7,1.64-18.78,6.46-28.16,4.17-8.11,12.22-20.25,18.32-22.77,14.71-6.06,24.83.99,47.25,11.93,19.82,9.67,22.97,11.77,34.7,21.47,6.46,5.34-4.76,6.33-18.51,30.75Z"/>
  <path d="M673.94,266.41c-17.58,30.92-8.33,37.89-20.83,34.56-20.42-5.45-24.57-8.32-49.94-20.7-26.37-12.87-36.54-17.17-45.58-33.56-5.43-9.83,1.51-23.61,7.52-35.25,5.2-10.07,15.36-25.1,23.29-28.05,19.12-7.13,32.65,2.11,62.48,16.66,26.37,12.87,30.58,15.62,46.32,28.25,8.67,6.95-6.03,7.82-23.25,38.1Z"/>
  <path d="M610.17,362.31c-21.92,38.64-10.55,47.25-25.96,43.19-25.17-6.64-30.27-10.19-61.51-25.44-32.47-15.85-44.99-21.13-56.04-41.48-6.63-12.21,2.03-29.42,9.53-43.96,6.48-12.58,19.14-31.37,28.95-35.1,23.65-9.01,40.3,2.39,77.02,20.31,32.47,15.85,37.64,19.24,56.99,34.86,10.65,8.6-7.5,9.78-28.98,47.62Z"/>
  <path d="M878.06,165.65c-9.51,20.83-15.33,19.41-10.29,23.82,8.23,7.21,10.72,7.95,23.56,14.6,13.34,6.92,18.18,9.85,28.33,7.31,6.09-1.53,10.58-10.39,14.33-17.95,3.24-6.54,7.41-17.41,6.58-22.29-2.01-11.77-10.08-14.24-25.17-22.07-13.34-6.92-15.8-7.74-26.07-9.83-5.65-1.15-1.96,6-11.27,26.4Z"/>
  <path d="M854.53,243.59c-11.65,26.13-20.05,23.77-12.5,29.94,12.34,10.07,15.95,11.25,34.79,21.02,19.58,10.15,26.72,14.39,40.92,12,8.52-1.43,14.1-12.51,18.76-21.97,4.03-8.18,8.98-21.89,7.36-28.28-3.9-15.43-15.6-19.35-37.74-30.83-19.58-10.15-23.14-11.43-37.92-15.06-8.14-2-2.25,7.6-13.66,33.19Z"/>
  <path d="M824.34,341.5c-14.35,32.55-25.46,29.27-15.33,37.32,16.54,13.15,21.32,14.77,46.39,27.76,26.05,13.51,35.56,19.1,54.12,16.6,11.13-1.5,18.06-15.28,23.83-27.05,4.99-10.17,11-27.29,8.65-35.42-5.67-19.6-21.15-24.97-50.62-40.24-26.05-13.51-30.77-15.25-50.29-20.36-10.75-2.81-2.68,9.5-16.74,41.38Z"/>
  <path d="M785.34,449.87c-17.96,40.63-31.66,36.64-19.2,46.59,20.34,16.25,26.22,18.23,57.08,34.23,32.08,16.63,43.78,23.53,66.71,20.28,13.76-1.95,22.41-19.16,29.62-33.85,6.24-12.7,13.78-34.06,10.94-44.17-6.86-24.37-25.94-30.93-62.22-49.74-32.08-16.63-37.88-18.76-61.96-24.98-13.25-3.43-3.38,11.85-20.97,51.65Z"/>
</svg>