<?xml version="1.0" encoding="UTF-8"?>
<svg id="Layer_1" data-name="Layer 1" xmlns="http://www.w3.org/2000/svg" viewBox="0 0 1000 1000">
  <defs>
    <style>
      .cls-1 {
        fill: #fff;
      }
    </style>
  </defs>
  <polyline points="3.11 4.23 996.55 4.23 996.55 999.21 3.11 999.21"/>
  <g>
    <g>
      <g id="Isotipo">
        <path class="cls-1" d="M203.29,303.63c2.67,1.3,4.24,5.99,5.64,12.33,2.43,11.05,5.19,26.93,7.91,39.31,16.66,70.57,74.27,127.09,137.95,157.87,3.87,1.97,8.32,4.79,10.2,7.89,3.95,6.07,0,13.54-2.4,19.76-10.02,24.31-14.12,50.1-12.88,76.48.1,4.87.85,12.47-2.91,15.45-3.73,2.22-8.24-1.79-10.87-4.66-12.47-13.46-9.48-37.66-6.88-55.84,0-1.4-.62-.6-1.9,2.22-1.56,3.35-3.7,9.12-5.61,12.84-1.69,3.13-3.42,6.56-6.91,7.29-7.31.47-19.32-15.8-21.48-23.99-2.86-8.95.37-20.84.54-29.41-.13-1-.69-.27-1.53,1.7-1.51,3.56-3.57,8.94-6.65,11.84-6.27,5.65-13.05-1.54-18.31-9.73-5.7-9.37-8.61-21.25-10.97-32.21-.53-1.79-1.21-6.41-2.78-5.63-2.4,1.62-4.75,4.89-8.58,2.31-3.11-2.19-5.66-6.36-7.8-9.74-10.17-16.19-16.61-35.3-29.05-49.69-3.49-3.04-1.01,2.5.51,5.5,8.74,15.93,25.61,44.72,34.43,60.4,6.48,10.88,3.17,11.33-5.42,17.02-.81.67-1.22,1.57-.34,2.3,1.64,1.8,12.47,4.29,17.85,7.52,8.86,5.08,19.53,16.46,18.52,26.18-.28,3.26-2.37,7.3-3.64,9.72-2.18,3.92.89,3.81,4.27,4.31,13.81,0,30.26,10.11,31.46,24.51.25,4.41-1.57,9.23-2.96,13.16-3.72,8.52,7.12,2.11,11.16,1.89,11.08-2.78,21.36,8.5,22.84,19.05,1.16,6.03-2.12,13.45-3.83,17.84-.97,2.67-1.32,4.44,1,3.4,3.23-1.27,10.03-6.84,14.33-5.08,4.34,2.49,5.21,7.09,7.01,12.29,2,7.03,3.9,15.09,5.65,22.39,3.61,17.82,9.48,33.59,14.3,50.9,3.27,13.33,4.01,27.2-14.67,17.6-22.96-11.65-46.72-28.02-66.93-43.93-93.57-71.15-128.2-185.56-127.44-302.37,1.08-31.78,4.1-59.61,17.15-88.96,3.12-7.35,12.29-24.13,19.79-22.1l.18.08Z"/>
        <path class="cls-1" d="M805.18,555.56c-5.97-6.95-20.25-9.65-29.84-12.14-16.65-4.03-33.83-8.49-48.58-17.6-14.7-8.72-24.07-20.72-40.86-28.17-19.31-8.66-42.56-11.14-61.6-19.74-22.42-10.1-35.87-30.4-58.36-40.76-17.47-9.34-36.89-10.97-53.64-20.42-14.85-8.2-26.75-20.83-39.37-31.89-6.35-5.55-19.76-16.62-25.95-11.13,7.46,43.94,268.9,157.89,334.18,182.29,5.52,2.22,12.71,4.74,17.95,4.97,6.21.42,8.84-1.87,6.23-5.22l-.15-.19Z"/>
        <path class="cls-1" d="M493.54,819.39c-4.85,6.32-34.69-3.51-46.57-9.45-13.78-6.89-24.51-19.35-23.86-25.73-.13-8.16,29.48-92.87,45.97-131.6,22.27-52.32,77.91-161.22,89.46-183.13.88-1.66,3.86-1.24,8.04-.15,14.34,3.73,42.67,18.54,47.41,20.83,5.54,2.66,14.98,7.83,37.99,20.01,3.99,2.11,9.38,6.32,10.56,8.81,1.37,2.34.92,4.25-.16,6.44-6.05,11.92-64.95,129.58-92.81,178.89-15.27,27.03-67.96,106.24-76.03,115.1Z"/>
        <path class="cls-1" d="M307.09,285.25c2.28,1.27,4,4.78,5.09,7.52,17.04,41.5,53.91,71.33,94.22,89.18,4.62,2.66,14.41,7.14,13.4,12.67-3.97,8.96-9.75,21.78-15.43,34.2-6.59,14.4-13.04,28.24-16.39,34.86-2.44,2.55-4.06-2.19-5.3-6.37-.98-2.88-.88-6.54-3.03-8.67-1.32-.77-2.82.71-4.08,1.15-1.43.61-2.48.18-3.66-1.04-5.82-7.02-15.56-21.11-19.3-25.72,3.01,6.63,13.98,24.76,17.65,31.79,4.28,7.01-4.43,5.74-6.62,9.36.88,1.88,6.81,2.17,10.33,4.66,9.52,6.28,7.73,17.1,1.23,27.99-6.57,11.12-14.11,11.57-25.8,7.73-86.65-26.08-85.79-148.54-49.89-216.87,2.3-2.79,5.16-3.91,7.58-2.42Z"/>
        <path class="cls-1" d="M552.17,827.75c.11,0-1.78.03-1.67.01,88.97-17.04,153.63-76.64,201.99-152.12,7.86-12.27,27.91-45.84,38.09-66.78,4.32-8.88,10.62-23.25,9.76-26.62-.99-3.86-3.98-8.86-10.82-12.5-15.35-8.15-39.41-18.12-46.92-21.47-10.82-4.83-66.78-30.5-69.93-25.03-7.72,13.43-23.56,48.11-40.17,81.12-25.38,50.45-35.87,77.2-60.5,114.51-30.99,46.94-40.65,66.77-72.5,100.13-4.65,4.87-4.02,8.12,22.32,10.69.26.03,11.03-.11,11.29-.15l19.05-1.79Z"/>
        <path class="cls-1" d="M700.66,448.5c-5.88,11.83-11.83,25.64-21.34,27.75-14.33,3.17-30.91-6.54-49.79-15.75-19.63-9.58-37.52-19.62-43.34-33.67-3.5-8.43,2.96-21.34,8.54-32.26,4.82-9.45,13.89-23.72,20.31-26.98,15.47-7.85,31.32,2.62,53.52,13.46,19.63,9.58,37.5,17.78,43.35,31.75,3.51,8.38-5.51,24.2-11.23,35.71Z"/>
      </g>
      <path class="cls-1" d="M380.02,741.11c-39.42-81.64-28.31-167.01,3.49-250.88,5.16-13.62,20.18-49.73,30.92-70.38,4.56-8.76,12.34-22.38,15.56-23.7,3.69-1.51,9.49-2.09,16.48,1.24,15.7,7.47,38.04,20.85,45.2,24.88,10.32,5.81,64.29,35.45,61.77,41.23-6.18,14.2-24.59,47.59-41.2,80.6-25.38,50.45-40.62,74.81-55.89,116.82-19.22,52.86-29.82,74.44-37.62,119.89-1.14,6.67-10.28,4.02-22.28-12.48-9.51-13.07-16.44-27.23-16.44-27.23Z"/>
    </g>
    <path class="cls-1" d="M731.58,364.4c-4.75,9.56-9.56,20.73-17.24,22.42-11.58,2.56-24.98-5.28-40.24-12.73-15.86-7.74-30.32-15.86-35.03-27.21-2.83-6.81,2.39-17.25,6.9-26.07,3.89-7.63,11.23-19.17,16.41-21.81,12.5-6.35,25.31,2.12,43.25,10.88,15.86,7.74,30.31,14.37,35.03,25.66,2.84,6.78-4.45,19.56-9.08,28.86Z"/>
    <path class="cls-1" d="M756.26,293.04c-3.8,7.65-7.65,16.58-13.79,17.94-9.27,2.05-19.98-4.23-32.19-10.18-12.69-6.19-24.26-12.69-28.02-21.77-2.26-5.45,1.92-13.8,5.52-20.86,3.12-6.11,8.98-15.34,13.13-17.44,10-5.08,20.25,1.7,34.6,8.7,12.69,6.19,24.25,11.49,28.03,20.53,2.27,5.42-3.56,15.65-7.26,23.09Z"/>
    <path class="cls-1" d="M777.1,235.24c-3.06,6.16-6.17,13.37-11.12,14.46-7.47,1.65-16.11-3.41-25.96-8.21-10.23-4.99-19.56-10.23-22.59-17.55-1.82-4.39,1.54-11.12,4.45-16.82,2.51-4.92,7.24-12.37,10.59-14.06,8.06-4.09,16.32,1.37,27.89,7.01,10.23,4.99,19.55,9.27,22.6,16.55,1.83,4.37-2.87,12.62-5.86,18.62Z"/>
    <path class="cls-1" d="M794.6,188.7c-2.5,5.04-5.04,10.92-9.08,11.81-6.1,1.35-13.16-2.78-21.2-6.71-8.36-4.08-15.98-8.36-18.46-14.34-1.49-3.59,1.26-9.09,3.63-13.74,2.05-4.02,5.92-10.1,8.65-11.49,6.59-3.34,15.38-1.82,24.83,2.8,8.36,4.08,13.93,10.5,16.42,16.45,1.49,3.57-2.35,10.31-4.78,15.21Z"/>
    <path class="cls-1" d="M714.05,202.8c-8.38,15.18-4.88,18.08-9.84,17.01-8.1-1.75-9.67-2.93-19.52-7.74-10.23-4.99-14.2-6.61-17.24-13.93-1.82-4.39,1.54-11.12,4.45-16.82,2.51-4.92,7.24-12.37,10.59-14.06,8.06-4.09,13.21-.3,24.78,5.35,10.23,4.99,11.83,6.11,17.75,11.41,3.25,2.92-2.76,3.9-10.97,18.77Z"/>
    <path class="cls-1" d="M677.27,252.29c-10.63,18.88-5.41,22.93-12.57,21.12-11.69-2.96-14.04-4.62-28.49-11.67-15.01-7.33-20.81-9.75-25.77-19.47-2.98-5.83,1.24-14.23,4.89-21.33,3.16-6.14,9.26-15.34,13.88-17.25,11.14-4.59,18.81.75,35.79,9.04,15.01,7.33,17.4,8.91,26.28,16.26,4.89,4.05-3.6,4.8-14.02,23.29Z"/>
    <path class="cls-1" d="M631.35,314.85c-13.32,23.42-6.31,28.7-15.78,26.17-15.46-4.13-18.61-6.3-37.82-15.68-19.98-9.75-27.67-13.01-34.52-25.42-4.11-7.45,1.14-17.88,5.69-26.7,3.93-7.63,11.63-19.01,17.64-21.25,14.48-5.4,24.73,1.6,47.32,12.62,19.98,9.75,23.16,11.83,35.08,21.4,6.56,5.27-4.57,5.92-17.61,28.86Z"/>
    <path class="cls-1" d="M583.05,387.49c-16.6,29.26-7.99,35.79-19.66,32.71-19.06-5.03-22.93-7.72-46.59-19.27-24.59-12-34.07-16.01-42.44-31.42-5.02-9.25,1.54-22.28,7.22-33.3,4.91-9.53,14.49-23.76,21.92-26.59,17.92-6.83,30.52,1.81,58.34,15.39,24.59,12,28.51,14.57,43.16,26.4,8.07,6.51-5.68,7.41-21.95,36.07Z"/>
    <path class="cls-1" d="M785.95,238.54c-7.2,15.77-11.61,14.7-7.8,18.04,6.23,5.46,8.12,6.02,17.84,11.06,10.11,5.24,13.77,7.46,21.46,5.54,4.61-1.16,8.01-7.87,10.85-13.6,2.46-4.95,5.61-13.18,4.98-16.88-1.52-8.92-7.63-10.79-19.06-16.71-10.11-5.24-11.96-5.86-19.74-7.45-4.28-.87-1.48,4.54-8.54,20Z"/>
    <path class="cls-1" d="M768.13,297.57c-8.82,19.79-15.19,18.01-9.47,22.68,9.34,7.63,12.08,8.52,26.35,15.92,14.83,7.69,20.24,10.9,30.99,9.09,6.46-1.09,10.68-9.48,14.21-16.64,3.05-6.19,6.8-16.58,5.58-21.42-2.95-11.68-11.81-14.65-28.59-23.35-14.83-7.69-17.53-8.66-28.72-11.41-6.16-1.52-1.7,5.75-10.35,25.14Z"/>
    <path class="cls-1" d="M745.26,371.73c-10.87,24.65-19.28,22.17-11.61,28.27,12.53,9.96,16.15,11.18,35.13,21.03,19.73,10.23,26.94,14.47,40.99,12.57,8.43-1.14,13.68-11.58,18.05-20.49,3.78-7.71,8.33-20.67,6.55-26.83-4.29-14.85-16.02-18.91-38.34-30.48-19.73-10.23-23.3-11.55-38.09-15.42-8.14-2.13-2.03,7.2-12.68,31.34Z"/>
    <path class="cls-1" d="M715.73,453.81c-13.6,30.77-23.98,27.75-14.55,35.28,15.4,12.31,19.86,13.81,43.24,25.93,24.29,12.6,33.16,17.82,50.53,15.36,10.42-1.48,16.97-14.51,22.44-25.64,4.72-9.62,10.44-25.8,8.28-33.45-5.19-18.46-19.65-23.43-47.12-37.67-24.29-12.6-28.69-14.21-46.93-18.92-10.04-2.6-2.56,8.98-15.88,39.12Z"/>
  </g>
</svg>