<?xml version="1.0" encoding="UTF-8"?>
<svg id="Layer_1" data-name="Layer 1" xmlns="http://www.w3.org/2000/svg" viewBox="0 0 1000 1000">
  <defs>
    <style>
      .cls-1 {
        fill: #42210b;
      }

      .cls-2 {
        fill: #2b4d3f;
      }

      .cls-3 {
        fill: #754c24;
      }
    </style>
  </defs>
  <g>
    <g id="Isotipo">
      <path class="cls-2" d="M93.53,248.37c3.53,1.71,5.61,7.92,7.46,16.3,3.21,14.61,6.86,35.61,10.46,51.98,22.03,93.31,98.21,168.04,182.41,208.74,5.12,2.6,11,6.34,13.49,10.44,5.22,8.03,0,17.9-3.17,26.13-13.24,32.15-18.67,66.25-17.02,101.12.14,6.44,1.12,16.49-3.84,20.43-4.93,2.93-10.89-2.37-14.37-6.17-16.49-17.8-12.54-49.8-9.1-73.84,0-1.86-.81-.79-2.51,2.93-2.07,4.42-4.89,12.06-7.42,16.98-2.24,4.14-4.53,8.68-9.13,9.64-9.67.62-25.54-20.89-28.4-31.72-3.79-11.83.48-27.55.72-38.89-.18-1.32-.92-.36-2.03,2.25-2,4.71-4.73,11.82-8.8,15.65-8.3,7.47-17.25-2.03-24.21-12.86-7.54-12.39-11.38-28.09-14.51-42.59-.7-2.36-1.6-8.48-3.67-7.45-3.17,2.14-6.28,6.46-11.34,3.06-4.12-2.89-7.48-8.41-10.31-12.88-13.45-21.4-21.96-46.68-38.41-65.7-4.61-4.02-1.34,3.31.67,7.28,11.55,21.07,33.86,59.14,45.53,79.86,8.57,14.38,4.19,14.98-7.17,22.51-1.08.89-1.62,2.08-.45,3.04,2.17,2.38,16.49,5.67,23.61,9.95,11.71,6.72,25.82,21.76,24.49,34.61-.36,4.3-3.13,9.65-4.82,12.85-2.89,5.18,1.17,5.04,5.65,5.69,18.26,0,40.02,13.37,41.59,32.41.33,5.83-2.07,12.2-3.91,17.4-4.92,11.27,9.41,2.79,14.76,2.49,14.64-3.67,28.25,11.24,30.2,25.18,1.54,7.98-2.8,17.78-5.07,23.59-1.29,3.52-1.74,5.87,1.33,4.5,4.27-1.67,13.26-9.05,18.95-6.72,5.74,3.29,6.89,9.37,9.27,16.24,2.65,9.3,5.16,19.96,7.48,29.6,4.77,23.56,12.53,44.42,18.91,67.3,4.33,17.63,5.3,35.97-19.4,23.28-30.35-15.4-61.77-37.05-88.5-58.08-123.72-94.07-169.51-245.35-168.5-399.8,1.42-42.02,5.42-78.82,22.68-117.63,4.13-9.72,16.25-31.91,26.17-29.22l.24.11Z"/>
      <path class="cls-3" d="M889.37,581.47c-7.89-9.18-26.77-12.76-39.46-16.05-22.01-5.33-44.73-11.23-64.23-23.28-19.44-11.53-31.83-27.39-54.03-37.24-25.54-11.45-56.28-14.73-81.44-26.1-29.64-13.35-47.43-40.19-77.17-53.9-23.1-12.36-48.78-14.51-70.93-27-19.63-10.85-35.36-27.55-52.06-42.17-8.4-7.34-26.12-21.98-34.31-14.71,9.87,58.09,355.55,208.77,441.86,241.03,7.29,2.93,16.8,6.27,23.73,6.58,8.21.56,11.69-2.47,8.23-6.9l-.2-.25Z"/>
      <path class="cls-1" d="M477.31,930.31c-6.42,8.36-45.87-4.64-61.58-12.5-18.22-9.11-32.41-25.58-31.55-34.02-.17-10.78,38.98-122.8,60.78-174.01,29.45-69.18,103.01-213.17,118.28-242.14,1.16-2.19,5.11-1.64,10.64-.2,18.96,4.93,56.41,24.52,62.68,27.54,7.32,3.52,19.8,10.35,50.23,26.46,5.28,2.79,12.4,8.36,13.97,11.65,1.81,3.09,1.22,5.62-.21,8.51-8,15.77-85.88,171.33-122.71,236.54-20.19,35.74-89.86,140.48-100.53,152.19Z"/>
      <path class="cls-2" d="M230.79,224.05c3.02,1.67,5.29,6.32,6.73,9.94,22.52,54.87,71.28,94.31,124.58,117.92,6.1,3.52,19.05,9.44,17.71,16.75-5.25,11.85-12.89,28.8-20.4,45.22-8.71,19.04-17.24,37.35-21.67,46.09-3.22,3.37-5.36-2.89-7.01-8.42-1.3-3.81-1.17-8.65-4.01-11.46-1.75-1.02-3.72.94-5.39,1.52-1.9.81-3.28.23-4.83-1.37-7.69-9.28-20.58-27.91-25.52-34.01,3.98,8.77,18.48,32.73,23.33,42.03,5.67,9.26-5.85,7.58-8.75,12.37,1.17,2.49,9.01,2.87,13.66,6.16,12.59,8.3,10.22,22.61,1.63,37.01-8.69,14.7-18.66,15.3-34.11,10.22-114.57-34.48-113.43-196.4-65.96-286.76,3.04-3.7,6.82-5.17,10.02-3.2Z"/>
      <path class="cls-1" d="M554.84,941.37c.14-.01-2.35.04-2.21.01,117.64-22.53,203.13-101.34,267.08-201.14,10.39-16.22,36.9-60.61,50.36-88.29,5.71-11.74,14.04-30.74,12.9-35.2-1.3-5.11-5.26-11.72-14.3-16.52-20.3-10.78-52.11-23.96-62.04-28.39-14.3-6.38-88.3-40.33-92.46-33.09-10.21,17.76-31.16,63.61-53.12,107.26-33.56,66.7-47.42,102.08-79.99,151.4-40.98,62.06-53.75,88.29-95.86,132.39-6.14,6.43-5.32,10.74,29.52,14.13.34.03,14.59-.14,14.93-.2l25.19-2.37Z"/>
      <path class="cls-3" d="M751.18,439.92c-7.77,15.64-15.65,33.91-28.21,36.69-18.95,4.19-40.87-8.64-65.84-20.83-25.95-12.66-49.61-25.94-57.31-44.52-4.62-11.15,3.92-28.22,11.29-42.66,6.37-12.49,18.37-31.37,26.85-35.67,20.46-10.39,41.41,3.47,70.76,17.79,25.95,12.66,49.59,23.5,57.32,41.98,4.64,11.09-7.29,32-14.85,47.22Z"/>
    </g>
    <path class="cls-1" d="M327.22,826.81c-52.12-107.95-37.43-220.83,4.62-331.72,6.83-18.01,26.68-65.75,40.88-93.06,6.02-11.58,16.31-29.6,20.57-31.34,4.88-2,12.55-2.76,21.79,1.64,20.75,9.88,50.3,27.57,59.77,32.9,13.65,7.68,85.01,46.87,81.68,54.52-8.18,18.78-32.51,62.93-54.47,106.58-33.56,66.7-53.7,98.92-73.9,154.47-25.41,69.89-39.43,98.42-49.75,158.53-1.51,8.82-13.59,5.32-29.46-16.5-12.57-17.28-21.74-36.01-21.74-36.01Z"/>
  </g>
  <path class="cls-3" d="M792.05,328.72c-6.28,12.64-12.64,27.4-22.8,29.65-15.32,3.39-33.03-6.99-53.21-16.83-20.97-10.24-40.09-20.97-46.32-35.98-3.74-9.01,3.17-22.8,9.12-34.48,5.15-10.09,14.84-25.35,21.7-28.83,16.53-8.39,33.47,2.8,57.19,14.38,20.97,10.24,40.08,19,46.32,33.93,3.75,8.96-5.89,25.86-12.01,38.16Z"/>
  <path class="cls-3" d="M824.69,234.36c-5.03,10.11-10.11,21.92-18.24,23.72-12.25,2.71-26.42-5.59-42.57-13.47-16.78-8.19-32.07-16.77-37.05-28.78-2.99-7.21,2.53-18.24,7.3-27.58,4.12-8.07,11.87-20.28,17.36-23.06,13.23-6.71,26.77,2.24,45.75,11.5,16.78,8.19,32.06,15.2,37.06,27.14,3,7.17-4.71,20.69-9.6,30.53Z"/>
  <path class="cls-3" d="M852.25,157.94c-4.05,8.15-8.16,17.67-14.7,19.12-9.88,2.19-21.3-4.51-34.32-10.86-13.53-6.6-25.86-13.52-29.87-23.21-2.41-5.81,2.04-14.71,5.88-22.24,3.32-6.51,9.57-16.35,14-18.59,10.66-5.41,21.58,1.81,36.88,9.27,13.53,6.6,25.85,12.25,29.88,21.88,2.42,5.78-3.8,16.68-7.74,24.61Z"/>
  <path class="cls-3" d="M875.39,96.4c-3.31,6.66-6.66,14.44-12.01,15.62-8.07,1.79-17.4-3.68-28.04-8.87-11.05-5.39-21.12-11.05-24.4-18.96-1.97-4.75,1.67-12.01,4.81-18.16,2.71-5.32,7.82-13.36,11.43-15.19,8.71-4.42,20.33-2.4,32.83,3.7,11.05,5.39,18.41,13.89,21.71,21.76,1.98,4.72-3.1,13.63-6.33,20.11Z"/>
  <path class="cls-3" d="M768.88,115.04c-11.07,20.08-6.46,23.91-13.01,22.5-10.71-2.31-12.79-3.88-25.81-10.23-13.53-6.6-18.77-8.74-22.79-18.42-2.41-5.81,2.04-14.71,5.88-22.24,3.32-6.51,9.57-16.35,14-18.59,10.66-5.41,17.47-.4,32.77,7.07,13.53,6.6,15.65,8.08,23.46,15.09,4.3,3.86-3.65,5.16-14.5,24.82Z"/>
  <path class="cls-3" d="M720.25,180.48c-14.06,24.97-7.15,30.32-16.61,27.92-15.46-3.91-18.57-6.11-37.67-15.43-19.85-9.69-27.51-12.9-34.07-25.75-3.94-7.71,1.65-18.81,6.47-28.2,4.17-8.12,12.24-20.28,18.35-22.8,14.73-6.07,24.87.99,47.32,11.95,19.85,9.69,23,11.79,34.75,21.5,6.47,5.35-4.77,6.34-18.54,30.8Z"/>
  <path class="cls-3" d="M659.53,263.2c-17.61,30.97-8.34,37.95-20.86,34.61-20.45-5.46-24.6-8.33-50.01-20.73-26.41-12.89-36.59-17.2-45.65-33.61-5.44-9.85,1.51-23.64,7.53-35.31,5.2-10.08,15.38-25.13,23.32-28.09,19.15-7.14,32.7,2.11,62.57,16.69,26.41,12.89,30.62,15.64,46.39,28.29,8.68,6.96-6.04,7.83-23.29,38.16Z"/>
  <path class="cls-3" d="M595.66,359.24c-21.95,38.69-10.57,47.32-26,43.25-25.21-6.65-30.31-10.21-61.6-25.47-32.52-15.87-45.05-21.16-56.12-41.54-6.64-12.23,2.03-29.46,9.54-44.03,6.49-12.6,19.16-31.41,28.99-35.16,23.69-9.03,40.36,2.4,77.14,20.34,32.52,15.87,37.7,19.27,57.07,34.91,10.67,8.61-7.51,9.79-29.02,47.69Z"/>
  <path class="cls-3" d="M863.95,162.29c-9.52,20.86-15.35,19.44-10.31,23.86,8.24,7.22,10.74,7.96,23.59,14.63,13.36,6.93,18.21,9.87,28.38,7.32,6.1-1.53,10.59-10.41,14.35-17.98,3.25-6.55,7.42-17.43,6.59-22.32-2.01-11.79-10.09-14.26-25.21-22.1-13.36-6.93-15.82-7.75-26.1-9.85-5.66-1.16-1.96,6.01-11.29,26.44Z"/>
  <path class="cls-3" d="M840.38,240.35c-11.67,26.17-20.08,23.81-12.52,29.98,12.35,10.09,15.97,11.27,34.84,21.05,19.61,10.17,26.76,14.41,40.98,12.02,8.54-1.43,14.13-12.53,18.79-22,4.03-8.19,8.99-21.92,7.37-28.33-3.91-15.45-15.62-19.38-37.8-30.87-19.61-10.17-23.17-11.45-37.98-15.09-8.15-2-2.25,7.61-13.68,33.24Z"/>
  <path class="cls-3" d="M810.15,338.4c-14.37,32.59-25.5,29.32-15.35,37.38,16.57,13.17,21.35,14.79,46.46,27.8,26.09,13.53,35.62,19.13,54.19,16.62,11.15-1.51,18.08-15.31,23.86-27.09,5-10.19,11.01-27.33,8.66-35.47-5.68-19.63-21.18-25-50.69-40.3-26.09-13.53-30.81-15.27-50.36-20.39-10.76-2.82-2.68,9.52-16.76,41.44Z"/>
  <path class="cls-3" d="M771.09,446.93c-17.99,40.69-31.7,36.69-19.23,46.65,20.37,16.27,26.26,18.26,57.17,34.28,32.12,16.65,43.85,23.56,66.81,20.3,13.78-1.95,22.44-19.19,29.66-33.9,6.24-12.72,13.8-34.11,10.95-44.23-6.87-24.4-25.98-30.98-62.31-49.81-32.12-16.65-37.94-18.79-62.05-25.02-13.27-3.43-3.38,11.87-21,51.73Z"/>
</svg>