<svg xmlns="http://www.w3.org/2000/svg" baseProfile="tiny" viewBox="0 0 300 250"><path fill="#fff" d="M267.38 27c3.7-4.05-.95-10.93-4.42-13.63-4.01-3.12-16.31-7.63-18.33-.74-1.55 5.31 5.17 6.59 8.82 8.89 3.36 2.12 10.21 9.56 13.93 5.48m-47.54-12.44c-3.52.55-11.88 4.74-7.11 8.71.87.73 10.3 4.41 11.64 4.68 3.21.65 1.94-1.31 2.59-3.09 1.32-3.57 4.02-4.95 6.57-7.46-3.4-2.47-9.55-3.49-13.7-2.84Zm40.74 28.74c4.37-5.21-.8-13.5-5.07-17.06-5.28-4.39-20.38-10.72-24.62-2.44-3.55 6.94 5.64 9.04 9.97 11.66 4.44 2.69 8.45 6.05 12.62 9.12 2.17 1.26 5.55.58 7.11-1.28Zm-38.81-11.63c1.42-1.47-4.88-4.35-5.9-4.74-5.76-2.19-12.75-2.87-18.67-1.02-4.68 1.46-7.7 5.75-4.8 10.45 1.43 2.31 10.42 7.62 13.21 8.99 1.17.57 2.24 1.38 3.64 1.32 1.49-6.51 4.97-14.36 12.52-14.99Zm-118.7 64.77v6.57c0 .42.72 1.8.67 2.5l1.35-.03c2.88-5.24 5.52-10.62 8.84-15.62 2.03-3.05 5.87-6.95 7.45-9.77 2.61-4.67-7.74-8.93-10.94-11.18-9.84-6.93-21.19-19.38-25.38-30.8-2.04-5.55-2.31-16.22-8.64-5.68-8.76 14.6-15.34 42.52-11.75 59.14 2.42 11.22 11.71 21.85 21.69 27.23 4.81 2.6 8.23 4.43 11.72-.84 4.98-7.51 5.6-12.13-4.54-14.28 1.35-2.29 4.63.93 6.33-1.12l-7.23-16.54 7.7 13.59c1.83.12 1.17-2.66 2.71-3.17Zm122.68-62.38c-3.85.36-7.31 2.91-9.05 6.36-1.45 2.86-2.69 6.87-.37 9.6 4.74 3.4 10.2 5.72 15.01 9 2.43 1.65 7.74 6.94 9.58 7.63 9.27 3.49 15.78-10.62 10.22-18.37-1.59-2.22-13.43-10.08-16.38-11.7s-5.47-2.85-9.01-2.52m39.3 20.45c2.03 1.81 7.14 7.9 9.29 2.34 2.25-5.78-1.71-13.73-5.93-17.69-3.78-3.55-2.73-1.11-3.27 1.25-.28 1.22-.98 3.21-1.61 4.28-1.15 1.94-3.2 2.65-3.99 4.44 0 .82 4.45 4.46 5.5 5.4Zm-84.62-15.95c-6.35.87-11.63 7.13-8.75 13.52 1.92 4.28 14.75 11.29 19.29 12.87 5.24 1.83 3.72-.54 5.34-4.15.91-2.04 2.47-3.91 4.2-5.31 1.88-1.52 5.99-2.47 4.71-5.24-.7-1.52-8.66-6.6-10.54-7.58-3.07-1.6-11.03-4.55-14.25-4.11M50.97 124.08v-6.34c.92.17.74.96.91 1.59 1.65 6.28 1.9 12.56 6.15 17.85.9 1.12 4.48 5.15 5.86 3.67.66-.7 2.02-7.69 2.48-9.32.2-.72-.49-1.34.91-1.11.24 4.33-2.48 9.57-1.7 13.71.82 4.38 7.31 8.36 9.63 12.11 1.75-3.22 2.51-6.85 3.81-10.25.25-.66-.43-1.32.94-1.07-.63 5.51-2.41 9.2-.96 14.78 1 3.86 4.44 10.75 9.12 10.14-.9-11.48-.91-22.47 3.09-33.38.93-2.54 3.55-6.68 4.03-8.65 1.06-4.34-1.77-3.15-4.28-4.08-23.14-8.57-47.69-36.8-53.46-60.7-1.31-5.44-1.24-12.57-2.86-17.52-1.88-5.72-5.18-.62-6.85 2.17-15.59 26.03-8.28 77.15 2.8 104.26 11.13 27.25 29 44.37 53.67 59.58 3.01 1.85 14.12 9.99 14.31 2.94.1-3.59-3.64-12.03-4.78-16.09-1.66-5.89-2.68-12.05-4.34-17.86-.43-1.5-1.25-5.45-2.98-5.57-1.66-.17-1.66 1.38-2.45 2.23-.49.54-4.42 4.56-4.96 3.98 1.13-4.63 7.67-7.83 3.82-13.11-.61-.84-1.43-1.04-1.86-1.54-2.2-2.59-2.6-4.98-6.83-3.57-.97.32-6.46 4.18-6.91 3.73l5.67-7.21c-1.31-4.67-6.42-10.76-11.47-11.26-3.37-.33-5.59 1.76-8.7 2.16 1.51-2.09 8.49-3.36 7.97-6.36-.82-4.76-7.8-11.44-12.57-12.37-1.12-.22-5.82-.12-5.81-.97l7.69-1.59-.08-1.04-16.43-28.87-.25-2.24 15.62 26.73 2.04.45Zm198.08-54.27c-.26.46-.18 1.35-.01 1.85.29.87 10.99 7.53 12.58 8.27 3.53 1.65 7.11 2.5 9.73-1.18 4.11-5.79-2.8-17.41-7.2-21.72-.94-.92-6.57-5.46-7.49-4.52.71 5.83-.18 10.14-4.12 14.58-.77.87-3.38 2.53-3.49 2.72m-57.34.52c-2.71-3.23-18.47-12.69-22.77-14.6-5.89-2.62-14.75-3.88-18.49 2.69-5.81 10.2 3.49 17.78 11.13 22.79 2.21 1.45 13.91 8.56 15.6 8.86 4.87.89 3.26-3.2 4.65-6.62 1.65-4.06 6.66-8.54 10.89-9.71.37-1.3-.19-2.44-1-3.41Zm34.77 17.78c3.46 2.54 5.55 2.85 9.4.48 7.62-4.7 7.55-15.35 1.05-21.12-2.99-2.66-13.56-9.74-17.12-11.42-6.06-2.86-12.37-1.76-16.35 3.74-1.98 2.74-3.56 8.13-1.81 11.25 1.1 1.96 12.27 7.51 15.1 9.36 3.68 2.41 6.48 5.31 9.74 7.7Zm3.48 42.95 30.76 17.47-40.26-18.84c.58.37 1.09.04.85 1.17-.45.35-5.57-1.9-8.61 1.58-15.75 24.54-29.63 50.49-48.69 72.71-7.69 8.96-17.17 18.93-26.82 25.73-2 1.41-13.15 7.53-13.52 8.23-.25.48-.39.93-.01 1.4 1.41 2.02 15.56.39 18.5-.13 27.66-4.93 49.74-24.21 68.3-44.05 9.6-10.26 20.89-23.67 28.36-35.51 2.58-4.08 7.14-10.41 3.35-15.12-2.33-2.89-9.78-6.66-12.74-9.59-.62.01-1.31-.77-.85-1.17m-72.27-49.83L130 71.72c-3.99 4.3-8.29 10.89-11.53 15.89-17.05 26.28-34.39 63.49-27.5 95.46.25 1.18 1.96 7.58 2.82 7.59 1.29-1.42.5-3.82.68-5.65 3.14-31.83 16.01-59.49 32.25-86.44 2.8-4.65 11.01-15.23 11.94-19.76.67-3.24-.54-7-3.44-8.84-2.49-1.57-3.59 0-5.22 1.75Zm39.99-8.02c-9.66 1.31-14.97 13.45-8.95 21.38 2.19 2.89 19.2 14.68 22.65 15.85 13.29 4.51 24.21-11.06 15.38-21.72-2.76-3.33-15.81-11.84-19.99-13.99-3.22-1.66-5.44-2.02-9.09-1.52m51.92 26.42c2.71 1.94 9.38 6.34 12.61 5.99 2.01-.22 5.02-2.14 6.24-3.77 5.39-7.22-.6-14.83-6.1-19.71-1.69-1.5-13.54-10.28-15.13-7.63.06 4.48-1.31 9.29-4.34 12.64-1.94 2.15-4.96 2.19-1.4 5.89 1.71 1.78 6.02 5.08 8.13 6.59ZM143.28 80.23c-4.43.85-10.18 11.29-12.48 15.17-20.6 34.67-42.61 88.79-26.21 128.4.32.77 3.68 8.62 4.76 5.07.69-18.47 7.26-35.94 15.08-52.41 12.33-25.97 30.19-48.54 45.6-72.64.28-2.77.42-4.84-1.27-7.15-2.96-4.03-15.52-12.3-20.23-15.1-1.54-.91-3.45-1.68-5.25-1.34m83.29 34.59c-1.99 1.71-5.59 2.26-3.25 5.67 9.56 6.14 27.11 23.1 38.53 13.09 9.43-8.27-1.14-18.25-7.96-23.28-2.98-2.19-17.38-11.61-20.13-11.62-2.42-.01-1.38 2.8-1.69 4.68-.63 3.77-2.54 8.93-5.5 11.47Zm-72.6 97.74c18.87-20.24 37.6-47.58 52.11-71.33 2.21-3.62 8.21-11.03 4.6-14.9l-33.63-22.54c-3.87-.7-4.99.49-7.12 3.11-8.41 10.38-17.75 25.43-25.19 36.87-12.58 19.34-21.17 36.62-28.29 58.69-2.43 7.52-6.91 22.66-4.2 29.98 3.91 10.56 17.09 1.55 22.67-2.45 7.1-5.09 13.11-11.06 19.04-17.42Zm7.55 26.12c27.54-1.92 49.83-20.48 67.28-40.31 8.89-10.1 18.68-23.29 25.21-35.03.83-1.5 4.14-7.45 4.02-8.67-.18-1.78-5.02-3.39-6.6-3.44-4.62-.13-8.39 6.18-10.81 9.58-19.11 26.8-35.11 49.57-63.45 67.92-4.14 2.68-11.41 5.77-14.71 8.39-.54.43-1.09.75-.93 1.56Z"/><path d="m50.97 124.08-2.04-.45L33.31 96.9l.25 2.24 16.43 28.87.08 1.04-7.69 1.59c-.01.85 4.7.75 5.81.97 4.77.93 11.75 7.61 12.57 12.37.52 3-6.46 4.27-7.97 6.36 3.11-.4 5.33-2.5 8.7-2.16 5.05.5 10.16 6.59 11.47 11.26l-5.67 7.21c.45.45 5.94-3.4 6.91-3.73 4.24-1.41 4.64.98 6.83 3.57.43.51 1.25.71 1.86 1.54 3.85 5.27-2.69 8.48-3.82 13.11.54.58 4.47-3.44 4.96-3.98.78-.86.78-2.41 2.45-2.23 1.72.11 2.55 4.07 2.98 5.57 1.66 5.8 2.67 11.96 4.34 17.86 1.15 4.06 4.88 12.5 4.78 16.09-.19 7.05-11.3-1.09-14.31-2.94-24.67-15.2-42.54-32.32-53.67-59.58-11.08-27.12-18.39-78.23-2.8-104.26 1.67-2.79 4.97-7.89 6.85-2.17 1.63 4.95 1.55 12.08 2.86 17.52 5.77 23.9 30.32 52.12 53.46 60.7 2.52.93 5.34-.26 4.28 4.08-.48 1.97-3.1 6.11-4.03 8.65-4 10.91-3.99 21.9-3.09 33.38-4.68.61-8.12-6.28-9.12-10.14-1.45-5.57.33-9.27.96-14.78-1.38-.25-.69.41-.94 1.07-1.3 3.4-2.06 7.03-3.81 10.25-2.32-3.75-8.81-7.73-9.63-12.11-.78-4.13 1.94-9.38 1.7-13.71-1.4-.23-.7.39-.91 1.11-.46 1.63-1.82 8.61-2.48 9.32-1.38 1.48-4.96-2.55-5.86-3.67-4.26-5.3-4.5-11.57-6.15-17.85-.16-.63.01-1.41-.91-1.59v6.34Z"/><path fill="#603813" d="M153.97 212.56c-5.93 6.36-11.94 12.33-19.04 17.42-5.58 4-18.76 13.01-22.67 2.45-2.71-7.32 1.77-22.46 4.2-29.98 7.11-22.06 15.71-39.35 28.29-58.69 7.44-11.43 16.78-26.49 25.19-36.87 2.13-2.62 3.25-3.82 7.12-3.11l33.63 22.54c3.61 3.87-2.39 11.28-4.6 14.9-14.5 23.75-33.23 51.09-52.11 71.33Z"/><path fill="#603813" d="M229.42 136.12c2.8 1.76 10.41 6.7 12.74 9.59 3.79 4.71-.77 11.04-3.35 15.12-7.47 11.84-18.76 25.25-28.36 35.51-18.56 19.84-40.63 39.12-68.3 44.05-2.94.52-17.09 2.15-18.5.13-.37-.47-.24-.92.01-1.4.37-.7 11.52-6.82 13.52-8.23 9.64-6.8 19.13-16.77 26.82-25.73 19.06-22.22 32.94-48.17 48.69-72.71 3.04-3.48 4.93-3.77 8.61-1.58M143.28 80.23c1.81-.35 3.72.42 5.25 1.34 4.71 2.81 17.27 11.07 20.23 15.1 1.69 2.31 1.55 4.38 1.27 7.15-15.4 24.1-33.27 46.67-45.6 72.64-7.82 16.47-14.4 33.94-15.08 52.41-1.08 3.56-4.44-4.3-4.76-5.07-16.4-39.62 5.61-93.74 26.21-128.4 2.31-3.88 8.05-14.31 12.48-15.17"/><path d="M103.07 96.44c-1.54.51-.88 3.29-2.71 3.17l-7.7-13.59 7.23 16.54c-1.7 2.06-4.98-1.17-6.33 1.12 10.13 2.15 9.51 6.77 4.54 14.28-3.49 5.27-6.91 3.43-11.72.84-9.98-5.38-19.27-16.01-21.69-27.23-3.59-16.62 2.99-44.54 11.75-59.14 6.32-10.54 6.6.13 8.64 5.68 4.18 11.41 15.53 23.87 25.38 30.8 3.19 2.25 13.55 6.51 10.94 11.18-1.57 2.82-5.42 6.72-7.45 9.77-3.32 4.99-5.96 10.38-8.84 15.62l-1.35.03c.05-.7-.67-2.08-.67-2.5v-6.57Z"/><path fill="#603813" d="M161.52 238.68c-.16-.81.39-1.13.93-1.56 3.3-2.62 10.57-5.71 14.71-8.39 28.34-18.35 44.35-41.12 63.45-67.92 2.42-3.4 6.19-9.72 10.81-9.58 1.58.05 6.42 1.66 6.6 3.44.12 1.22-3.18 7.17-4.02 8.67-6.53 11.75-16.32 24.93-25.21 35.03-17.45 19.82-39.74 38.38-67.28 40.31ZM130 71.72c1.62-1.75 2.73-3.32 5.22-1.75 2.9 1.83 4.11 5.6 3.44 8.84-.94 4.53-9.14 15.11-11.94 19.76-16.23 26.95-29.11 54.6-32.25 86.44-.18 1.82.61 4.23-.68 5.65-.86-.01-2.57-6.41-2.82-7.59-6.89-31.97 10.45-69.19 27.5-95.46 3.24-4.99 7.55-11.58 11.53-15.89"/><path fill="#a67c52" d="M196.3 77.09c3.66-.5 5.87-.14 9.09 1.52 4.18 2.15 17.23 10.66 19.99 13.99 8.83 10.66-2.09 26.23-15.38 21.72-3.46-1.17-20.46-12.97-22.65-15.85-6.02-7.93-.7-20.07 8.95-21.38"/><path fill="#a67c52" d="M226.57 114.82c2.96-2.54 4.87-7.7 5.5-11.47.31-1.88-.72-4.69 1.69-4.68 2.74.01 17.15 9.43 20.13 11.62 6.82 5.03 17.39 15.01 7.96 23.28-11.43 10.02-28.97-6.95-38.53-13.09-2.34-3.41 1.26-3.96 3.25-5.67ZM187.71 70.33c.81.97 1.37 2.11 1 3.41-4.23 1.17-9.24 5.65-10.89 9.71-1.39 3.42.22 7.51-4.65 6.62-1.69-.31-13.38-7.42-15.6-8.86-7.64-5-16.94-12.58-11.13-22.79 3.74-6.57 12.6-5.31 18.49-2.69 4.3 1.91 20.06 11.37 22.77 14.6ZM224.56 86.06c-3.02-2.22-5.6-4.89-9.01-7.12-2.61-1.71-12.94-6.85-13.96-8.66-1.62-2.88-.16-7.87 1.68-10.4 3.69-5.09 9.52-6.11 15.12-3.46 3.29 1.56 13.07 8.11 15.83 10.56 6.01 5.34 6.07 15.18-.97 19.53-3.55 2.19-5.49 1.91-8.69-.44ZM227.29 36.05c3.05-.28 5.19.73 7.78 2.12s12.78 8 14.15 9.87c4.81 6.54-.82 18.44-8.83 15.5-1.59-.58-6.18-5.04-8.28-6.44-4.16-2.76-8.87-4.72-12.97-7.59-2-2.3-.93-5.68.32-8.1 1.51-2.91 4.49-5.06 7.82-5.37ZM181.88 38.28c3.24-.34 11.11 2.86 14.14 4.56 1.86 1.04 9.66 6.38 10.31 7.92 1.19 2.82-2.95 3.63-4.88 5.1-1.78 1.35-3.39 3.17-4.37 5.18-1.74 3.57-.29 5.99-5.48 3.99-4.5-1.73-17.11-9.15-18.9-13.5-2.68-6.49 2.81-12.59 9.19-13.26ZM247.76 102.28c-2.01-1.44-6.11-4.58-7.74-6.27-3.39-3.52-.52-3.56 1.33-5.61 2.89-3.2 4.19-7.77 4.13-12.04 1.51-2.52 12.8 5.84 14.41 7.26 5.24 4.65 10.94 11.9 5.81 18.77-1.16 1.55-4.02 3.38-5.94 3.59-3.07.34-9.43-3.85-12-5.7M257.66 40.55c-1.25 1.4-3.98 1.92-5.73.97-3.36-2.32-6.59-4.86-10.17-6.89-3.49-1.98-10.89-3.57-8.03-8.81 3.42-6.26 15.59-1.47 19.85 1.85 3.45 2.69 7.61 8.95 4.09 12.89ZM251.02 67.6c.09-.16 2.22-1.51 2.85-2.22 3.21-3.62 3.93-7.14 3.36-11.89.75-.77 5.34 2.93 6.11 3.68 3.59 3.52 9.23 13 5.87 17.72-2.14 3.01-5.05 2.31-7.93.97-1.29-.6-10.02-6.03-10.26-6.74-.14-.41-.21-1.14.01-1.51ZM222.23 33.05c-7.15.31-10.64 6.69-12.2 12.01-1.33.02-2.33-.68-3.42-1.19-2.61-1.2-10.99-5.82-12.29-7.77-2.63-3.95.33-7.41 4.79-8.48 5.64-1.36 12.24-.6 17.64 1.36.96.35 6.86 2.9 5.47 4.07ZM263.34 25.14c-2.79 3.5-8.73-2.14-11.57-3.67-3.08-1.66-8.58-2.33-7.62-6.7 1.25-5.69 11.45-2.71 14.86-.41 2.96 2 7.09 7.31 4.32 10.78ZM223.91 16.28c3.91-.2 9.5 1.34 12.41 3.96-2.61 2.07-5.25 3.09-6.81 6.27-.78 1.58.21 3.52-2.7 2.61-1.22-.38-9.59-4.71-10.32-5.47-4.02-4.13 4.13-7.2 7.43-7.37ZM262.68 47.13c-.89-.67-4.65-3.23-4.7-3.88.5-1.46 2.07-2.16 2.84-3.77.43-.89.84-2.5.98-3.48.27-1.89-.72-3.75 2.5-1.2 3.59 2.84 7.25 8.83 5.87 13.54s-5.76.08-7.48-1.21Z"/></svg>