<?xml version="1.0" encoding="UTF-8"?>
<svg id="Layer_1" data-name="Layer 1" xmlns="http://www.w3.org/2000/svg" viewBox="0 0 1923.05 1745.44">
  <defs>
    <style>
      .cls-1 {
        fill: #5d3b1b;
      }
    </style>
  </defs>
  <path class="cls-1" d="M1865.82,135.08c27.78-30.38-7.13-82.06-33.21-102.36-30.08-23.43-122.47-57.29-137.58-5.53-11.64,39.86,38.8,49.47,66.18,66.72,25.23,15.89,76.65,71.75,104.61,41.17ZM1508.91,41.75c-26.39,4.15-89.16,35.6-53.4,65.35,6.55,5.45,77.3,33.08,87.42,35.13,24.1,4.88,14.55-9.85,19.47-23.19,9.89-26.78,30.16-37.19,49.36-56.01-25.49-18.57-71.68-26.19-102.85-21.29ZM1814.8,257.51c32.78-39.13-5.99-101.37-38.1-128.08-39.61-32.95-153.03-80.5-184.85-18.35-26.65,52.06,42.31,67.88,74.82,87.56,33.36,20.19,63.45,45.44,94.77,68.47,16.31,9.46,41.68,4.34,53.36-9.6ZM1523.42,170.14c10.69-11.05-36.65-32.68-44.33-35.59-43.21-16.4-95.75-21.54-140.13-7.69-35.12,10.96-57.82,43.19-36.05,78.43,10.73,17.37,78.22,57.2,99.19,67.46,8.76,4.29,16.85,10.39,27.36,9.89,11.18-48.86,37.34-107.84,93.97-112.5ZM632.33,656.45v49.31c0,3.12,5.39,13.48,5.03,18.77l10.11-.23c21.65-39.36,41.46-79.76,66.39-117.26,15.22-22.9,44.1-52.16,55.92-73.32,19.6-35.09-58.14-67.07-82.11-83.94-73.89-52-159.11-145.52-190.51-231.19-15.28-41.7-17.36-121.78-64.83-42.67-65.77,109.6-115.14,319.18-88.23,443.96,18.17,84.24,87.93,164.04,162.86,204.43,36.14,19.49,61.78,33.27,88-6.29,37.37-56.37,42.03-91.05-34.05-107.2,10.16-17.21,34.73,7.01,47.51-8.43l-54.28-124.15,57.83,101.99c13.73.87,8.77-19.95,20.36-23.79ZM1553.3,188.09c-28.88,2.72-54.85,21.87-67.94,47.76-10.87,21.5-20.18,51.58-2.81,72.07,35.6,25.53,76.58,42.94,112.71,67.53,18.25,12.42,58.14,52.12,71.93,57.31,69.61,26.18,118.5-79.71,76.71-137.91-11.97-16.67-100.84-75.7-122.99-87.86-22.54-12.37-41.06-21.4-67.61-18.89ZM1848.38,341.6c15.25,13.61,53.57,59.28,69.78,17.53,16.86-43.41-12.81-103.07-44.49-132.83-28.39-26.66-20.53-8.33-24.59,9.36-2.11,9.19-7.33,24.09-12.08,32.12-8.61,14.56-23.99,19.86-29.94,33.3,0,6.17,33.43,33.48,41.32,40.52ZM1213.09,221.9c-47.64,6.52-87.29,53.53-65.7,101.49,14.45,32.1,110.71,84.72,144.81,96.65,39.34,13.76,27.93-4.03,40.1-31.19,6.87-15.33,18.55-29.33,31.55-39.87,14.09-11.43,44.96-18.51,35.37-39.33-5.26-11.43-64.98-49.54-79.13-56.91-23.05-12.01-82.78-34.15-106.99-30.84ZM241.21,863.89v-47.61c6.9,1.29,5.57,7.21,6.8,11.9,12.4,47.17,14.25,94.27,46.2,134.04,6.76,8.42,33.61,38.67,43.99,27.56,4.94-5.29,15.2-57.7,18.62-69.94,1.51-5.4-3.69-10.08,6.8-8.33,1.8,32.48-18.59,71.87-12.76,102.9,6.18,32.91,54.91,62.77,72.31,90.9,13.14-24.17,18.86-51.43,28.58-76.97,1.88-4.94-3.23-9.88,7.09-8.02-4.74,41.33-18.06,69.1-7.21,110.93,7.52,28.99,33.36,80.67,68.46,76.1-6.74-86.16-6.83-168.67,23.2-250.56,6.98-19.04,26.67-50.13,30.29-64.92,7.96-32.62-13.27-23.64-32.16-30.63-173.72-64.36-358.03-276.25-401.34-455.66-9.86-40.85-9.28-94.39-21.48-131.55-14.11-42.96-38.9-4.67-51.43,16.26-117.07,195.42-62.16,579.16,20.99,782.72,83.58,204.6,217.75,333.11,402.95,447.26,22.58,13.92,105.97,75.01,107.42,22.09.74-26.97-27.3-90.28-35.92-120.79-12.49-44.25-20.1-90.48-32.57-134.06-3.22-11.23-9.4-40.94-22.35-41.79-12.48-1.28-12.49,10.33-18.38,16.77-3.7,4.05-33.15,34.24-37.23,29.85,8.5-34.77,57.59-58.82,28.71-98.41-4.58-6.28-10.71-7.78-13.93-11.58-16.48-19.43-19.51-37.38-51.31-26.8-7.28,2.43-48.51,31.34-51.89,27.97l42.58-54.13c-9.85-35.08-48.23-80.81-86.11-84.56-25.27-2.5-41.97,13.22-65.3,16.25,11.36-15.69,63.74-25.23,59.86-47.73-6.17-35.74-58.58-85.89-94.38-92.87-8.39-1.63-43.73-.9-43.65-7.3l57.77-11.92-.64-7.84-123.33-216.77-1.86-16.81,117.27,200.66,15.33,3.37ZM1728.21,456.5c-1.98,3.44-1.37,10.15-.09,13.92,2.21,6.53,82.53,56.5,94.43,62.05,26.52,12.37,53.35,18.79,73.02-8.9,30.88-43.45-20.99-130.69-54.07-163.08-7.07-6.92-49.31-40.98-56.2-33.9,5.3,43.75-1.35,76.11-30.9,109.46-5.8,6.54-25.36,19-26.19,20.44ZM1297.73,460.41c-20.37-24.27-138.64-95.23-170.96-109.61-44.21-19.67-110.72-29.1-138.81,20.21-43.64,76.59,26.2,133.51,83.56,171.06,16.62,10.88,104.4,64.24,117.09,66.55,36.54,6.66,24.46-24.04,34.88-49.72,12.37-30.5,49.98-64.1,81.75-72.91,2.78-9.72-1.41-18.32-7.5-25.57ZM1558.79,593.85c25.96,19.05,41.68,21.4,70.53,3.58,57.2-35.32,56.67-115.2,7.91-158.52-22.44-19.93-101.78-73.1-128.52-85.74-45.5-21.5-92.85-13.2-122.77,28.11-14.9,20.57-26.76,61.05-13.61,84.44,8.28,14.73,92.12,56.39,113.35,70.3,27.62,18.1,48.61,39.84,73.1,57.82ZM1584.93,916.29,1815.87,1047.51,1513.63,906.07c4.38,2.81,8.18.28,6.35,8.81-3.41,2.65-41.81-14.28-64.65,11.88-118.24,184.25-222.44,379.06-365.52,545.89-57.71,67.29-128.93,142.11-201.34,193.16-15.02,10.59-98.72,56.51-101.51,61.76-1.9,3.57-2.92,6.98-.11,10.48,10.58,15.17,116.8,2.94,138.87-.99,207.68-36.98,373.4-181.72,512.74-330.68,72.06-77.03,156.81-177.71,212.92-266.59,19.34-30.64,53.62-78.14,25.14-113.5-17.5-21.73-73.43-49.98-95.67-72.01-4.64.08-9.85-5.78-6.42-8.76M1032.04,571.36,1332.21,511.19c-72.49,9.82-112.39,100.98-67.2,160.48,16.46,21.67,144.11,110.21,170.06,119.01,99.78,33.84,181.77-82.99,115.46-163.06-20.69-24.98-118.67-88.88-150.05-105.02-24.2-12.44-40.81-15.14-68.28-11.42ZM1722.03,709.47c20.31,14.58,70.43,47.63,94.64,44.97,15.08-1.66,37.67-16.06,46.81-28.3,40.47-54.17-4.51-111.35-45.8-147.99-12.67-11.25-101.68-77.15-113.62-57.29.44,33.65-9.83,69.72-32.58,94.91-14.58,16.14-37.23,16.46-10.48,44.22,12.84,13.33,45.18,38.1,61.04,49.48ZM934.16,534.74c-33.28,6.4-76.4,84.73-93.71,113.87-154.62,260.26-319.91,666.55-196.75,963.97,2.38,5.75,27.62,64.74,35.72,38.03,5.18-138.64,54.54-269.8,113.25-393.46,92.56-194.95,226.66-364.37,342.31-545.3,2.11-20.82,3.19-36.36-9.5-53.68-22.2-30.29-116.48-92.31-151.87-113.4-11.53-6.87-25.87-12.65-39.43-10.04ZM1559.44,794.39c-14.98,12.84-41.95,16.95-24.41,42.58,71.79,46.11,203.49,173.46,289.27,98.26,70.82-62.08-8.53-137.02-59.73-174.76-22.34-16.47-130.51-87.16-151.12-87.26-18.15-.09-10.36,21-12.71,35.1-4.73,28.32-19.07,67.01-41.32,86.09ZM1014.44,1528.2c141.68-151.94,282.29-357.2,391.18-535.53,16.58-27.15,61.63-82.83,34.54-111.85l-252.45-169.23c-29.06-5.27-37.47,3.69-53.43,23.38-63.15,77.92-133.28,190.94-189.11,276.78-94.45,145.2-158.96,274.94-212.37,440.58-18.21,56.48-51.84,170.1-31.5,225.08,29.34,79.29,128.32,11.6,170.19-18.4,53.33-38.21,98.42-83.05,142.96-130.81ZM1071.08,1724.23c206.72-14.42,374.06-153.78,505.08-302.59,66.76-75.82,140.27-174.81,189.29-263.01,6.26-11.26,31.06-55.94,30.15-65.08-1.34-13.38-37.72-25.49-49.57-25.83-34.7-1.01-62.99,46.42-81.18,71.93-143.44,201.21-263.61,372.11-476.36,509.88-31.06,20.12-85.68,43.34-110.42,63.02-4.03,3.2-8.19,5.61-6.99,11.68Z"/>
  <path class="cls-1" d="M241.21,863.89l-15.33-3.37-117.27-200.66,1.86,16.81,123.33,216.77.64,7.84-57.77,11.92c-.08,6.39,35.26,5.66,43.65,7.3,35.8,6.97,88.22,57.13,94.38,92.87,3.88,22.5-48.5,32.03-59.86,47.73,23.33-3.02,40.04-18.75,65.3-16.25,37.89,3.75,76.26,49.48,86.11,84.56l-42.58,54.13c3.38,3.37,44.61-25.54,51.89-27.97,31.8-10.59,34.83,7.37,51.31,26.8,3.23,3.8,9.35,5.3,13.93,11.58,28.89,39.59-20.21,63.64-28.71,98.41,4.08,4.39,33.53-25.8,37.23-29.85,5.89-6.44,5.89-18.06,18.38-16.77,12.94.85,19.13,30.56,22.35,41.79,12.48,43.58,20.08,89.81,32.57,134.06,8.62,30.51,36.66,93.83,35.92,120.79-1.45,52.91-84.84-8.18-107.42-22.09-185.2-114.15-319.37-242.65-402.95-447.26C5.01,869.46-49.9,485.72,67.17,290.3c12.53-20.92,37.33-59.21,51.43-16.26,12.2,37.16,11.62,90.7,21.48,131.55,43.31,179.42,227.62,391.31,401.34,455.66,18.89,7,40.12-1.98,32.16,30.63-3.61,14.79-23.3,45.87-30.29,64.92-30.03,81.9-29.93,164.4-23.2,250.56-35.1,4.57-60.95-47.12-68.46-76.1-10.85-41.83,2.47-69.6,7.21-110.93-10.33-1.87-5.21,3.08-7.09,8.02-9.73,25.54-15.44,52.79-28.58,76.97-17.41-28.13-66.14-58-72.31-90.9-5.83-31.03,14.57-70.42,12.76-102.9-10.49-1.75-5.29,2.92-6.8,8.33-3.43,12.24-13.68,64.66-18.62,69.94-10.38,11.11-37.23-19.14-43.99-27.56-31.95-39.77-33.8-86.87-46.2-134.04-1.23-4.7.1-10.61-6.8-11.9v47.61Z"/>
  <path class="cls-1" d="M1014.44,1528.2c-44.54,47.77-89.63,92.6-142.96,130.81-41.86,30-140.85,97.69-170.19,18.4-20.34-54.97,13.29-168.6,31.5-225.08,53.41-165.64,117.92-295.38,212.37-440.58,55.83-85.83,125.96-198.86,189.11-276.78,15.96-19.69,24.37-28.65,53.43-23.38l252.45,169.23c27.09,29.02-17.96,84.71-34.54,111.85-108.89,178.33-249.5,383.59-391.18,535.53Z"/>
  <path class="cls-1" d="M1580.85,954.28c21.05,13.23,78.17,50.28,95.67,72.01,28.48,35.36-5.8,82.86-25.14,113.5-56.11,88.89-140.86,189.56-212.92,266.59-139.34,148.95-305.06,293.7-512.74,330.68-22.07,3.93-128.29,16.16-138.87.99-2.81-3.5-1.79-6.91.11-10.48,2.79-5.25,86.49-51.17,101.51-61.76,72.41-51.05,143.63-125.87,201.34-193.16,143.08-166.83,247.27-361.65,365.52-545.89,22.84-26.16,36.98-28.33,64.65-11.88"/>
  <path class="cls-1" d="M934.16,534.74c13.56-2.61,27.91,3.17,39.43,10.04,35.39,21.08,129.67,83.11,151.87,113.4,12.69,17.32,11.61,32.85,9.5,53.68-115.64,180.93-249.75,350.35-342.31,545.3-58.71,123.66-108.07,254.82-113.25,393.46-8.1,26.7-33.34-32.28-35.72-38.03-123.16-297.41,42.14-703.7,196.75-963.97,17.31-29.13,60.43-107.46,93.71-113.87Z"/>
  <path class="cls-1" d="M632.33,656.45c-11.59,3.84-6.63,24.66-20.36,23.79l-57.83-101.99,54.28,124.15c-12.78,15.43-37.35-8.78-47.51,8.43,76.08,16.15,71.42,50.83,34.05,107.2-26.23,39.56-51.86,25.78-88,6.29-74.92-40.4-144.69-120.19-162.86-204.43-26.92-124.78,22.46-334.36,88.23-443.96,47.47-79.11,49.55.97,64.83,42.67,31.4,85.67,116.62,179.2,190.51,231.19,23.97,16.87,101.71,48.85,82.11,83.94-11.82,21.16-40.7,50.42-55.92,73.32-24.92,37.5-44.73,77.89-66.39,117.26l-10.11.23c.35-5.29-5.03-15.65-5.03-18.77v-49.31Z"/>
  <path class="cls-1" d="M1071.08,1724.23c-1.2-6.07,2.96-8.48,6.99-11.68,24.75-19.68,79.36-42.9,110.42-63.02,212.75-137.77,332.92-308.66,476.36-509.88,18.19-25.52,46.48-72.94,81.18-71.93,11.85.35,48.23,12.45,49.57,25.83.91,9.14-23.89,53.81-30.15,65.08-49.02,88.2-122.53,187.19-189.29,263.01-131.03,148.81-298.36,288.17-505.08,302.59Z"/>
  <path class="cls-1" d="M822.25,484.21c11.79-13.51,19.72-25.53,38.75-14.28,22.17,13.1,32.12,41.09,27.82,65.53-6.01,34.22-65.18,115.45-85.16,150.99-115.74,205.86-206.13,416.3-222.52,655.87-.94,13.72,5.53,31.6-3.86,42.54-6.47.11-20.7-47.54-22.87-56.32-58.88-238.36,62.85-521.52,184.87-722.54,23.18-38.19,54.01-88.6,82.97-121.8Z"/>
  <path class="cls-1" d="M1332.21,511.19c27.47-3.72,44.08-1.03,68.28,11.42,31.38,16.14,129.36,80.04,150.05,105.02,66.31,80.06-15.68,196.9-115.46,163.06-25.95-8.8-153.61-97.34-170.06-119.01-45.19-59.5-5.29-150.66,67.2-160.48Z"/>
  <path class="cls-1" d="M1559.44,794.39c22.25-19.08,36.59-57.78,41.32-86.09,2.35-14.1-5.44-35.18,12.71-35.1,20.6.1,128.77,70.79,151.12,87.26,51.19,37.74,130.55,112.68,59.73,174.76-85.78,75.2-217.49-52.15-289.27-98.26-17.55-25.62,9.43-29.73,24.41-42.58Z"/>
  <path class="cls-1" d="M1297.73,460.41c6.09,7.25,10.28,15.85,7.5,25.57-31.77,8.82-69.38,42.41-81.75,72.91-10.42,25.68,1.67,56.38-34.88,49.72-12.69-2.31-100.47-55.67-117.09-66.55-57.36-37.55-127.2-94.47-83.56-171.06,28.1-49.31,94.6-39.87,138.81-20.21,32.32,14.37,150.59,85.34,170.96,109.61Z"/>
  <path class="cls-1" d="M1558.79,593.85c-24.49-17.98-45.48-39.72-73.1-57.82-21.23-13.91-105.07-55.57-113.35-70.3-13.15-23.39-1.29-63.87,13.61-84.44,29.92-41.32,77.27-49.61,122.77-28.11,26.74,12.63,106.08,65.8,128.52,85.74,48.77,43.32,49.29,123.2-7.91,158.52-28.85,17.82-44.58,15.47-70.53-3.58Z"/>
  <path class="cls-1" d="M1553.3,188.09c26.55-2.5,45.07,6.53,67.61,18.89,22.15,12.16,111.02,71.19,122.99,87.86,41.79,58.2-7.1,164.1-76.71,137.91-13.79-5.19-53.68-44.89-71.93-57.31-36.13-24.59-77.11-42-112.71-67.53-17.36-20.49-8.05-50.57,2.81-72.07,13.09-25.89,39.05-45.04,67.94-47.76Z"/>
  <path class="cls-1" d="M1213.09,221.9c24.21-3.31,83.94,18.83,106.99,30.84,14.15,7.37,73.87,45.48,79.13,56.91,9.59,20.83-21.28,27.9-35.37,39.33-12.99,10.54-24.68,24.54-31.55,39.87-12.17,27.16-.76,44.94-40.1,31.19-34.1-11.92-130.37-64.54-144.81-96.65-21.58-47.96,18.06-94.97,65.7-101.49Z"/>
  <path class="cls-1" d="M1722.03,709.47c-15.85-11.38-48.19-36.15-61.04-49.48-26.75-27.76-4.1-28.07,10.48-44.22,22.75-25.2,33.02-61.26,32.58-94.91,11.94-19.86,100.95,46.04,113.62,57.29,41.29,36.64,86.27,93.82,45.8,147.99-9.14,12.24-31.73,26.64-46.81,28.3-24.2,2.66-74.32-30.39-94.64-44.97Z"/>
  <path class="cls-1" d="M1814.8,257.51c-11.68,13.94-37.04,19.05-53.36,9.6-31.32-23.03-61.41-48.28-94.77-68.47-32.52-19.68-101.47-35.49-74.82-87.56,31.82-62.16,145.25-14.6,184.85,18.35,32.11,26.71,70.88,88.95,38.1,128.08Z"/>
  <path class="cls-1" d="M1728.21,456.5c.83-1.44,20.4-13.9,26.19-20.44,29.55-33.35,36.19-65.7,30.9-109.46,6.88-7.08,49.13,26.97,56.2,33.9,33.08,32.39,84.95,119.63,54.07,163.08-19.67,27.68-46.5,21.27-73.02,8.9-11.9-5.55-92.22-55.52-94.43-62.05-1.28-3.77-1.89-10.48.09-13.92Z"/>
  <path class="cls-1" d="M1523.42,170.14c-56.63,4.66-82.78,63.64-93.97,112.5-10.51.5-18.59-5.6-27.36-9.89-20.97-10.26-88.46-50.09-99.19-67.46-21.77-35.24.93-67.47,36.05-78.43,44.39-13.86,96.93-8.72,140.13,7.69,7.67,2.91,55.01,24.54,44.33,35.59Z"/>
  <path class="cls-1" d="M1865.82,135.08c-27.95,30.58-79.38-25.28-104.61-41.17-27.39-17.25-77.82-26.86-66.18-66.72,15.12-51.76,107.5-17.9,137.58,5.53,26.07,20.31,60.98,71.98,33.21,102.36Z"/>
  <path class="cls-1" d="M1508.91,41.75c31.18-4.9,77.36,2.72,102.85,21.29-19.2,18.81-39.47,29.23-49.36,56.01-4.92,13.34,4.62,28.06-19.47,23.19-10.12-2.05-80.87-29.68-87.42-35.13-35.77-29.76,27-61.2,53.4-65.35Z"/>
  <path class="cls-1" d="M1848.38,341.6c-7.89-7.04-41.32-34.34-41.32-40.52,5.95-13.43,21.33-18.74,29.94-33.3,4.75-8.03,9.97-22.94,12.08-32.12,4.06-17.69-3.8-36.02,24.59-9.36,31.68,29.76,61.35,89.41,44.49,132.83-16.21,41.75-54.53-3.93-69.78-17.53Z"/>
</svg>